<?xml version="1.0" encoding="UTF-8"?>
<svg width="1100" height="720" viewBox="0 0 1100 720" xmlns="http://www.w3.org/2000/svg">
  <defs>
    <radialGradient id="bgbeautyhero" cx="35%" cy="35%" r="75%">
      <stop offset="0%" stop-color="#fdf2f8" />
      <stop offset="55%" stop-color="#ec4899" />
      <stop offset="100%" stop-color="#831843" />
    </radialGradient>
    <radialGradient id="glowbeautyhero" cx="50%" cy="40%" r="50%">
      <stop offset="0%" stop-color="rgba(255,255,255,0.22)" />
      <stop offset="100%" stop-color="rgba(255,255,255,0)" />
    </radialGradient>
    <pattern id="dotsbeautyhero" width="32" height="32" patternUnits="userSpaceOnUse">
      <circle cx="16" cy="16" r="1.5" fill="rgba(255,255,255,0.18)" />
    </pattern>
  </defs>

  <!-- Background -->
  <rect width="1100" height="720" fill="url(#bgbeautyhero)" />

  <!-- Dot pattern overlay -->
  <rect width="1100" height="720" fill="url(#dotsbeautyhero)" />

  <!-- Glow -->
  <ellipse cx="412.5" cy="251.99999999999997" rx="495" ry="324" fill="url(#glowbeautyhero)" />

  <!-- Decorative circles -->
  <circle cx="1040" cy="55" r="90" fill="rgba(255,255,255,0.07)" />
  <circle cx="1070" cy="680" r="65" fill="rgba(255,255,255,0.05)" />
  <circle cx="40" cy="670" r="80" fill="rgba(0,0,0,0.06)" />

  <!-- Specialty icon (centered, scaled) -->
  <g transform="translate(150, 0) scale(1)">
    
      <ellipse cx="400" cy="310" rx="55" ry="70" fill="rgba(255,255,255,0.35)" />
      <path d="M345 310 Q345 230 400 225 Q455 230 455 310 Q455 370 440 385 Q420 400 400 400 Q380 400 360 385 Q345 370 345 310Z" fill="rgba(255,255,255,0.4)" />
      <circle cx="400" cy="255" r="35" fill="rgba(255,255,255,0.5)" />
      <path d="M375 255 Q390 240 400 250 Q410 240 425 255" fill="none" stroke="rgba(131,24,67,0.6)" stroke-width="3" stroke-linecap="round"/>
      <ellipse cx="373" cy="262" rx="6" ry="4" fill="rgba(131,24,67,0.5)" />
      <ellipse cx="427" cy="262" rx="6" ry="4" fill="rgba(131,24,67,0.5)" />
      <path d="M385 278 Q400 288 415 278" fill="none" stroke="rgba(236,72,153,0.7)" stroke-width="4" stroke-linecap="round"/>
      <ellipse cx="400" cy="415" rx="70" ry="10" fill="rgba(131,24,67,0.3)" />
      <circle cx="265" cy="190" r="30" fill="rgba(255,255,255,0.12)" />
    
  </g>

  <!-- Bottom info badge -->
  <rect x="420" y="652" width="260" height="48" rx="24" fill="rgba(0,0,0,0.35)" />
  <text x="550" y="673" text-anchor="middle" font-family="'Noto Sans KR',Arial,sans-serif" font-size="17" font-weight="700" fill="white">뷰티살롱</text>
  <text x="550" y="692" text-anchor="middle" font-family="Arial,sans-serif" font-size="11" fill="rgba(255,255,255,0.75)">Beauty & Hair Salon</text>
</svg>