<?xml version="1.0" encoding="UTF-8"?>
<svg width="700" height="520" viewBox="0 0 700 520" xmlns="http://www.w3.org/2000/svg">
  <defs>
    <radialGradient id="bgcafegallery3" cx="35%" cy="35%" r="75%">
      <stop offset="0%" stop-color="#f5e6d3" />
      <stop offset="55%" stop-color="#c8783a" />
      <stop offset="100%" stop-color="#6b3a1f" />
    </radialGradient>
    <radialGradient id="glowcafegallery3" cx="50%" cy="40%" r="50%">
      <stop offset="0%" stop-color="rgba(255,255,255,0.22)" />
      <stop offset="100%" stop-color="rgba(255,255,255,0)" />
    </radialGradient>
    <pattern id="dotscafegallery3" width="32" height="32" patternUnits="userSpaceOnUse">
      <circle cx="16" cy="16" r="1.5" fill="rgba(255,255,255,0.18)" />
    </pattern>
  </defs>

  <!-- Background -->
  <rect width="700" height="520" fill="url(#bgcafegallery3)" />

  <!-- Dot pattern overlay -->
  <rect width="700" height="520" fill="url(#dotscafegallery3)" />

  <!-- Glow -->
  <ellipse cx="262.5" cy="182" rx="315" ry="234" fill="url(#glowcafegallery3)" />

  <!-- Decorative circles -->
  <circle cx="640" cy="55" r="90" fill="rgba(255,255,255,0.07)" />
  <circle cx="670" cy="480" r="65" fill="rgba(255,255,255,0.05)" />
  <circle cx="40" cy="470" r="80" fill="rgba(0,0,0,0.06)" />

  <!-- Specialty icon (centered, scaled) -->
  <g transform="translate(32, -35.19999999999999) scale(0.82)">
    
      <ellipse cx="400" cy="340" rx="90" ry="75" fill="rgba(255,255,255,0.35)" />
      <rect x="340" y="320" width="120" height="80" rx="8" fill="rgba(255,255,255,0.5)" />
      <ellipse cx="400" cy="318" rx="60" ry="18" fill="rgba(255,255,255,0.6)" />
      <path d="M455 330 Q480 330 480 350 Q480 370 455 370" fill="none" stroke="rgba(255,255,255,0.8)" stroke-width="8" stroke-linecap="round"/>
      <ellipse cx="400" cy="400" rx="70" ry="10" fill="rgba(107,58,31,0.3)" />
      <circle cx="270" cy="200" r="30" fill="rgba(255,255,255,0.15)" />
      <circle cx="530" cy="180" r="20" fill="rgba(255,255,255,0.1)" />
    
  </g>

  <!-- Bottom info badge -->
  <rect x="220" y="452" width="260" height="48" rx="24" fill="rgba(0,0,0,0.35)" />
  <text x="350" y="473" text-anchor="middle" font-family="'Noto Sans KR',Arial,sans-serif" font-size="17" font-weight="700" fill="white">카페</text>
  <text x="350" y="492" text-anchor="middle" font-family="Arial,sans-serif" font-size="11" fill="rgba(255,255,255,0.75)">Café & Coffee</text>
</svg>