<?xml version="1.0" encoding="UTF-8"?>
<svg width="700" height="520" viewBox="0 0 700 520" xmlns="http://www.w3.org/2000/svg">
  <defs>
    <radialGradient id="bgfitnessgallery3" cx="35%" cy="35%" r="75%">
      <stop offset="0%" stop-color="#fff7ed" />
      <stop offset="55%" stop-color="#f97316" />
      <stop offset="100%" stop-color="#7c2d12" />
    </radialGradient>
    <radialGradient id="glowfitnessgallery3" cx="50%" cy="40%" r="50%">
      <stop offset="0%" stop-color="rgba(255,255,255,0.22)" />
      <stop offset="100%" stop-color="rgba(255,255,255,0)" />
    </radialGradient>
    <pattern id="dotsfitnessgallery3" width="32" height="32" patternUnits="userSpaceOnUse">
      <circle cx="16" cy="16" r="1.5" fill="rgba(255,255,255,0.18)" />
    </pattern>
  </defs>

  <!-- Background -->
  <rect width="700" height="520" fill="url(#bgfitnessgallery3)" />

  <!-- Dot pattern overlay -->
  <rect width="700" height="520" fill="url(#dotsfitnessgallery3)" />

  <!-- Glow -->
  <ellipse cx="262.5" cy="182" rx="315" ry="234" fill="url(#glowfitnessgallery3)" />

  <!-- Decorative circles -->
  <circle cx="640" cy="55" r="90" fill="rgba(255,255,255,0.07)" />
  <circle cx="670" cy="480" r="65" fill="rgba(255,255,255,0.05)" />
  <circle cx="40" cy="470" r="80" fill="rgba(0,0,0,0.06)" />

  <!-- Specialty icon (centered, scaled) -->
  <g transform="translate(32, -35.19999999999999) scale(0.82)">
    
      <rect x="330" y="295" width="40" height="20" rx="10" fill="rgba(255,255,255,0.6)" />
      <rect x="370" y="285" width="60" height="40" rx="8" fill="rgba(255,255,255,0.5)" />
      <rect x="430" y="295" width="40" height="20" rx="10" fill="rgba(255,255,255,0.6)" />
      <rect x="394" y="265" width="12" height="80" rx="6" fill="rgba(255,255,255,0.7)" />
      <circle cx="345" cy="305" r="18" fill="rgba(255,255,255,0.45)" />
      <circle cx="455" cy="305" r="18" fill="rgba(255,255,255,0.45)" />
      <rect x="330" y="350" width="40" height="20" rx="10" fill="rgba(255,255,255,0.5)" />
      <rect x="370" y="340" width="60" height="40" rx="8" fill="rgba(255,255,255,0.4)" />
      <rect x="430" y="350" width="40" height="20" rx="10" fill="rgba(255,255,255,0.5)" />
      <ellipse cx="400" cy="415" rx="72" ry="11" fill="rgba(124,45,18,0.3)" />
      <circle cx="260" cy="185" r="28" fill="rgba(255,255,255,0.12)" />
    
  </g>

  <!-- Bottom info badge -->
  <rect x="220" y="452" width="260" height="48" rx="24" fill="rgba(0,0,0,0.35)" />
  <text x="350" y="473" text-anchor="middle" font-family="'Noto Sans KR',Arial,sans-serif" font-size="17" font-weight="700" fill="white">피트니스</text>
  <text x="350" y="492" text-anchor="middle" font-family="Arial,sans-serif" font-size="11" fill="rgba(255,255,255,0.75)">Fitness & Gym</text>
</svg>