<?xml version="1.0" encoding="UTF-8"?>
<svg width="800" height="600" viewBox="0 0 800 600" xmlns="http://www.w3.org/2000/svg">
  <defs>
    <radialGradient id="bgnailintro" cx="35%" cy="35%" r="75%">
      <stop offset="0%" stop-color="#f5f3ff" />
      <stop offset="55%" stop-color="#8b5cf6" />
      <stop offset="100%" stop-color="#4c1d95" />
    </radialGradient>
    <radialGradient id="glownailintro" cx="50%" cy="40%" r="50%">
      <stop offset="0%" stop-color="rgba(255,255,255,0.22)" />
      <stop offset="100%" stop-color="rgba(255,255,255,0)" />
    </radialGradient>
    <pattern id="dotsnailintro" width="32" height="32" patternUnits="userSpaceOnUse">
      <circle cx="16" cy="16" r="1.5" fill="rgba(255,255,255,0.18)" />
    </pattern>
  </defs>

  <!-- Background -->
  <rect width="800" height="600" fill="url(#bgnailintro)" />

  <!-- Dot pattern overlay -->
  <rect width="800" height="600" fill="url(#dotsnailintro)" />

  <!-- Glow -->
  <ellipse cx="300" cy="210" rx="360" ry="270" fill="url(#glownailintro)" />

  <!-- Decorative circles -->
  <circle cx="740" cy="55" r="90" fill="rgba(255,255,255,0.07)" />
  <circle cx="770" cy="560" r="65" fill="rgba(255,255,255,0.05)" />
  <circle cx="40" cy="550" r="80" fill="rgba(0,0,0,0.06)" />

  <!-- Specialty icon (centered, scaled) -->
  <g transform="translate(55.5, -16.80000000000001) scale(0.88)">
    
      <g transform="translate(330, 270)">
        
          <g transform="translate(0, 0)">
            <rect x="0" y="30" width="18" height="55" rx="9" fill="rgba(255,255,255,0.55)" />
            <ellipse cx="9" cy="30" rx="9" ry="12" fill="rgba(255,255,255,0.65)" />
            <rect x="1" y="28" width="16" height="30" rx="8" fill="rgba(255,255,255,0.7)" />
          </g>
        
          <g transform="translate(28, 0)">
            <rect x="0" y="30" width="18" height="55" rx="9" fill="rgba(255,255,255,0.55)" />
            <ellipse cx="9" cy="30" rx="9" ry="12" fill="rgba(255,255,255,0.65)" />
            <rect x="1" y="28" width="16" height="30" rx="8" fill="rgba(255,255,255,0.7)" />
          </g>
        
          <g transform="translate(56, 0)">
            <rect x="0" y="30" width="18" height="55" rx="9" fill="rgba(255,255,255,0.55)" />
            <ellipse cx="9" cy="30" rx="9" ry="12" fill="rgba(255,255,255,0.65)" />
            <rect x="1" y="28" width="16" height="30" rx="8" fill="rgba(255,255,255,0.7)" />
          </g>
        
          <g transform="translate(84, 0)">
            <rect x="0" y="30" width="18" height="55" rx="9" fill="rgba(255,255,255,0.55)" />
            <ellipse cx="9" cy="30" rx="9" ry="12" fill="rgba(255,255,255,0.65)" />
            <rect x="1" y="28" width="16" height="30" rx="8" fill="rgba(255,255,255,0.7)" />
          </g>
        
          <g transform="translate(112, 0)">
            <rect x="0" y="30" width="18" height="55" rx="9" fill="rgba(255,255,255,0.55)" />
            <ellipse cx="9" cy="30" rx="9" ry="12" fill="rgba(255,255,255,0.65)" />
            <rect x="1" y="28" width="16" height="30" rx="8" fill="rgba(255,255,255,0.7)" />
          </g>
        
      </g>
      <ellipse cx="400" cy="395" rx="60" ry="10" fill="rgba(76,29,149,0.3)" />
      <circle cx="270" cy="190" r="32" fill="rgba(255,255,255,0.12)" />
      <circle cx="540" cy="170" r="22" fill="rgba(255,255,255,0.1)" />
    
  </g>

  <!-- Bottom info badge -->
  <rect x="270" y="532" width="260" height="48" rx="24" fill="rgba(0,0,0,0.35)" />
  <text x="400" y="553" text-anchor="middle" font-family="'Noto Sans KR',Arial,sans-serif" font-size="17" font-weight="700" fill="white">네일샵</text>
  <text x="400" y="572" text-anchor="middle" font-family="Arial,sans-serif" font-size="11" fill="rgba(255,255,255,0.75)">Nail Art & Salon</text>
</svg>