<?xml version="1.0" encoding="UTF-8"?>
<svg width="700" height="520" viewBox="0 0 700 520" xmlns="http://www.w3.org/2000/svg">
  <defs>
    <radialGradient id="bgnailgallery2" cx="35%" cy="35%" r="75%">
      <stop offset="0%" stop-color="#f5f3ff" />
      <stop offset="55%" stop-color="#8b5cf6" />
      <stop offset="100%" stop-color="#4c1d95" />
    </radialGradient>
    <radialGradient id="glownailgallery2" cx="50%" cy="40%" r="50%">
      <stop offset="0%" stop-color="rgba(255,255,255,0.22)" />
      <stop offset="100%" stop-color="rgba(255,255,255,0)" />
    </radialGradient>
    <pattern id="dotsnailgallery2" width="32" height="32" patternUnits="userSpaceOnUse">
      <circle cx="16" cy="16" r="1.5" fill="rgba(255,255,255,0.18)" />
    </pattern>
  </defs>

  <!-- Background -->
  <rect width="700" height="520" fill="url(#bgnailgallery2)" />

  <!-- Dot pattern overlay -->
  <rect width="700" height="520" fill="url(#dotsnailgallery2)" />

  <!-- Glow -->
  <ellipse cx="262.5" cy="182" rx="315" ry="234" fill="url(#glownailgallery2)" />

  <!-- Decorative circles -->
  <circle cx="640" cy="55" r="90" fill="rgba(255,255,255,0.07)" />
  <circle cx="670" cy="480" r="65" fill="rgba(255,255,255,0.05)" />
  <circle cx="40" cy="470" r="80" fill="rgba(0,0,0,0.06)" />

  <!-- Specialty icon (centered, scaled) -->
  <g transform="translate(14.5, -35.19999999999999) scale(0.82)">
    
      <g transform="translate(330, 270)">
        
          <g transform="translate(0, 0)">
            <rect x="0" y="30" width="18" height="55" rx="9" fill="rgba(255,255,255,0.55)" />
            <ellipse cx="9" cy="30" rx="9" ry="12" fill="rgba(255,255,255,0.65)" />
            <rect x="1" y="28" width="16" height="30" rx="8" fill="rgba(255,255,255,0.7)" />
          </g>
        
          <g transform="translate(28, 0)">
            <rect x="0" y="30" width="18" height="55" rx="9" fill="rgba(255,255,255,0.55)" />
            <ellipse cx="9" cy="30" rx="9" ry="12" fill="rgba(255,255,255,0.65)" />
            <rect x="1" y="28" width="16" height="30" rx="8" fill="rgba(255,255,255,0.7)" />
          </g>
        
          <g transform="translate(56, 0)">
            <rect x="0" y="30" width="18" height="55" rx="9" fill="rgba(255,255,255,0.55)" />
            <ellipse cx="9" cy="30" rx="9" ry="12" fill="rgba(255,255,255,0.65)" />
            <rect x="1" y="28" width="16" height="30" rx="8" fill="rgba(255,255,255,0.7)" />
          </g>
        
          <g transform="translate(84, 0)">
            <rect x="0" y="30" width="18" height="55" rx="9" fill="rgba(255,255,255,0.55)" />
            <ellipse cx="9" cy="30" rx="9" ry="12" fill="rgba(255,255,255,0.65)" />
            <rect x="1" y="28" width="16" height="30" rx="8" fill="rgba(255,255,255,0.7)" />
          </g>
        
          <g transform="translate(112, 0)">
            <rect x="0" y="30" width="18" height="55" rx="9" fill="rgba(255,255,255,0.55)" />
            <ellipse cx="9" cy="30" rx="9" ry="12" fill="rgba(255,255,255,0.65)" />
            <rect x="1" y="28" width="16" height="30" rx="8" fill="rgba(255,255,255,0.7)" />
          </g>
        
      </g>
      <ellipse cx="400" cy="395" rx="60" ry="10" fill="rgba(76,29,149,0.3)" />
      <circle cx="270" cy="190" r="32" fill="rgba(255,255,255,0.12)" />
      <circle cx="540" cy="170" r="22" fill="rgba(255,255,255,0.1)" />
    
  </g>

  <!-- Bottom info badge -->
  <rect x="220" y="452" width="260" height="48" rx="24" fill="rgba(0,0,0,0.35)" />
  <text x="350" y="473" text-anchor="middle" font-family="'Noto Sans KR',Arial,sans-serif" font-size="17" font-weight="700" fill="white">네일샵</text>
  <text x="350" y="492" text-anchor="middle" font-family="Arial,sans-serif" font-size="11" fill="rgba(255,255,255,0.75)">Nail Art & Salon</text>
</svg>