<?xml version="1.0" encoding="UTF-8"?>
<svg width="700" height="520" viewBox="0 0 700 520" xmlns="http://www.w3.org/2000/svg">
  <defs>
    <radialGradient id="bgrestaurantgallery2" cx="35%" cy="35%" r="75%">
      <stop offset="0%" stop-color="#fef2f0" />
      <stop offset="55%" stop-color="#ef4444" />
      <stop offset="100%" stop-color="#7f1d1d" />
    </radialGradient>
    <radialGradient id="glowrestaurantgallery2" cx="50%" cy="40%" r="50%">
      <stop offset="0%" stop-color="rgba(255,255,255,0.22)" />
      <stop offset="100%" stop-color="rgba(255,255,255,0)" />
    </radialGradient>
    <pattern id="dotsrestaurantgallery2" width="32" height="32" patternUnits="userSpaceOnUse">
      <circle cx="16" cy="16" r="1.5" fill="rgba(255,255,255,0.18)" />
    </pattern>
  </defs>

  <!-- Background -->
  <rect width="700" height="520" fill="url(#bgrestaurantgallery2)" />

  <!-- Dot pattern overlay -->
  <rect width="700" height="520" fill="url(#dotsrestaurantgallery2)" />

  <!-- Glow -->
  <ellipse cx="262.5" cy="182" rx="315" ry="234" fill="url(#glowrestaurantgallery2)" />

  <!-- Decorative circles -->
  <circle cx="640" cy="55" r="90" fill="rgba(255,255,255,0.07)" />
  <circle cx="670" cy="480" r="65" fill="rgba(255,255,255,0.05)" />
  <circle cx="40" cy="470" r="80" fill="rgba(0,0,0,0.06)" />

  <!-- Specialty icon (centered, scaled) -->
  <g transform="translate(14.5, -35.19999999999999) scale(0.82)">
    
      <circle cx="400" cy="340" r="95" fill="rgba(255,255,255,0.3)" />
      <rect x="355" y="275" width="12" height="130" rx="6" fill="rgba(255,255,255,0.7)" />
      <ellipse cx="361" cy="285" rx="25" ry="18" fill="rgba(255,255,255,0.6)" />
      <rect x="393" y="275" width="12" height="130" rx="6" fill="rgba(255,255,255,0.7)" />
      <rect x="435" y="280" width="12" height="125" rx="6" fill="rgba(255,255,255,0.7)" />
      <ellipse cx="441" cy="290" rx="22" ry="16" fill="rgba(255,255,255,0.6)" />
      <ellipse cx="400" cy="410" rx="75" ry="12" fill="rgba(127,29,29,0.35)" />
      <circle cx="270" cy="195" r="28" fill="rgba(255,255,255,0.12)" />
      <circle cx="540" cy="175" r="22" fill="rgba(255,255,255,0.1)" />
    
  </g>

  <!-- Bottom info badge -->
  <rect x="220" y="452" width="260" height="48" rx="24" fill="rgba(0,0,0,0.35)" />
  <text x="350" y="473" text-anchor="middle" font-family="'Noto Sans KR',Arial,sans-serif" font-size="17" font-weight="700" fill="white">음식점</text>
  <text x="350" y="492" text-anchor="middle" font-family="Arial,sans-serif" font-size="11" fill="rgba(255,255,255,0.75)">Restaurant & Dining</text>
</svg>