<?xml version="1.0" encoding="UTF-8"?>
<svg width="700" height="520" viewBox="0 0 700 520" xmlns="http://www.w3.org/2000/svg">
  <defs>
    <radialGradient id="bgretailgallery1" cx="35%" cy="35%" r="75%">
      <stop offset="0%" stop-color="#f0fdfa" />
      <stop offset="55%" stop-color="#14b8a6" />
      <stop offset="100%" stop-color="#134e4a" />
    </radialGradient>
    <radialGradient id="glowretailgallery1" cx="50%" cy="40%" r="50%">
      <stop offset="0%" stop-color="rgba(255,255,255,0.22)" />
      <stop offset="100%" stop-color="rgba(255,255,255,0)" />
    </radialGradient>
    <pattern id="dotsretailgallery1" width="32" height="32" patternUnits="userSpaceOnUse">
      <circle cx="16" cy="16" r="1.5" fill="rgba(255,255,255,0.18)" />
    </pattern>
  </defs>

  <!-- Background -->
  <rect width="700" height="520" fill="url(#bgretailgallery1)" />

  <!-- Dot pattern overlay -->
  <rect width="700" height="520" fill="url(#dotsretailgallery1)" />

  <!-- Glow -->
  <ellipse cx="262.5" cy="182" rx="315" ry="234" fill="url(#glowretailgallery1)" />

  <!-- Decorative circles -->
  <circle cx="640" cy="55" r="90" fill="rgba(255,255,255,0.07)" />
  <circle cx="670" cy="480" r="65" fill="rgba(255,255,255,0.05)" />
  <circle cx="40" cy="470" r="80" fill="rgba(0,0,0,0.06)" />

  <!-- Specialty icon (centered, scaled) -->
  <g transform="translate(37, -35.19999999999999) scale(0.82)">
    
      <rect x="355" y="265" width="90" height="110" rx="5" fill="rgba(255,255,255,0.5)" />
      <path d="M355 265 L370 240 L430 240 L445 265Z" fill="rgba(255,255,255,0.45)" />
      <rect x="375" y="320" width="50" height="55" rx="3" fill="rgba(255,255,255,0.35)" />
      <line x1="400" y1="320" x2="400" y2="375" stroke="rgba(19,78,74,0.3)" stroke-width="2"/>
      <path d="M340 285 Q340 260 355 255 L355 265" fill="none" stroke="rgba(255,255,255,0.7)" stroke-width="10" stroke-linecap="round"/>
      <path d="M460 285 Q460 260 445 255 L445 265" fill="none" stroke="rgba(255,255,255,0.7)" stroke-width="10" stroke-linecap="round"/>
      <circle cx="360" cy="282" r="8" fill="rgba(255,255,255,0.65)" />
      <circle cx="440" cy="282" r="8" fill="rgba(255,255,255,0.65)" />
      <ellipse cx="400" cy="415" rx="70" ry="10" fill="rgba(19,78,74,0.3)" />
      <circle cx="265" cy="190" r="30" fill="rgba(255,255,255,0.12)" />
    
  </g>

  <!-- Bottom info badge -->
  <rect x="220" y="452" width="260" height="48" rx="24" fill="rgba(0,0,0,0.35)" />
  <text x="350" y="473" text-anchor="middle" font-family="'Noto Sans KR',Arial,sans-serif" font-size="17" font-weight="700" fill="white">소매점</text>
  <text x="350" y="492" text-anchor="middle" font-family="Arial,sans-serif" font-size="11" fill="rgba(255,255,255,0.75)">Retail & Shopping</text>
</svg>